<svg width="192" height="96" viewBox="0 0 192 96" fill="none" xmlns="http://www.w3.org/2000/svg">
<g filter="url(#filter0_d_33_350)">
<rect x="18" y="5" width="156" height="60" rx="10" fill="black"/>
</g>
<path d="M63.5316 28.04V42H60.7316V28.04H63.5316ZM78.238 42H75.438L69.098 32.42V42H66.298V28.02H69.098L75.438 37.62V28.02H78.238V42ZM85.825 42.14C84.8517 42.14 83.9717 41.9733 83.185 41.64C82.4117 41.3067 81.7983 40.8267 81.345 40.2C80.8917 39.5733 80.6583 38.8333 80.645 37.98H83.645C83.685 38.5533 83.885 39.0067 84.245 39.34C84.6183 39.6733 85.125 39.84 85.765 39.84C86.4183 39.84 86.9317 39.6867 87.305 39.38C87.6783 39.06 87.865 38.6467 87.865 38.14C87.865 37.7267 87.7383 37.3867 87.485 37.12C87.2317 36.8533 86.9117 36.6467 86.525 36.5C86.1517 36.34 85.6317 36.1667 84.965 35.98C84.0583 35.7133 83.3183 35.4533 82.745 35.2C82.185 34.9333 81.6983 34.54 81.285 34.02C80.885 33.4867 80.685 32.78 80.685 31.9C80.685 31.0733 80.8917 30.3533 81.305 29.74C81.7183 29.1267 82.2983 28.66 83.045 28.34C83.7917 28.0067 84.645 27.84 85.605 27.84C87.045 27.84 88.2117 28.1933 89.105 28.9C90.0117 29.5933 90.5117 30.5667 90.605 31.82H87.525C87.4983 31.34 87.2917 30.9467 86.905 30.64C86.5317 30.32 86.0317 30.16 85.405 30.16C84.8583 30.16 84.4183 30.3 84.085 30.58C83.765 30.86 83.605 31.2667 83.605 31.8C83.605 32.1733 83.725 32.4867 83.965 32.74C84.2183 32.98 84.525 33.18 84.885 33.34C85.2583 33.4867 85.7783 33.66 86.445 33.86C87.3517 34.1267 88.0917 34.3933 88.665 34.66C89.2383 34.9267 89.7317 35.3267 90.145 35.86C90.5583 36.3933 90.765 37.0933 90.765 37.96C90.765 38.7067 90.5717 39.4 90.185 40.04C89.7983 40.68 89.2317 41.1933 88.485 41.58C87.7383 41.9533 86.8517 42.14 85.825 42.14ZM95.9925 30.3V33.8H100.693V36.02H95.9925V39.72H101.293V42H93.1925V28.02H101.293V30.3H95.9925ZM111.037 42L107.957 36.56H106.637V42H103.837V28.04H109.077C110.157 28.04 111.077 28.2333 111.837 28.62C112.597 28.9933 113.164 29.5067 113.537 30.16C113.924 30.8 114.117 31.52 114.117 32.32C114.117 33.24 113.85 34.0733 113.317 34.82C112.784 35.5533 111.99 36.06 110.937 36.34L114.277 42H111.037ZM106.637 34.46H108.977C109.737 34.46 110.304 34.28 110.677 33.92C111.05 33.5467 111.237 33.0333 111.237 32.38C111.237 31.74 111.05 31.2467 110.677 30.9C110.304 30.54 109.737 30.36 108.977 30.36H106.637V34.46ZM119.45 28.04V42H116.65V28.04H119.45ZM129.416 42L126.336 36.56H125.016V42H122.216V28.04H127.456C128.536 28.04 129.456 28.2333 130.216 28.62C130.976 28.9933 131.543 29.5067 131.916 30.16C132.303 30.8 132.496 31.52 132.496 32.32C132.496 33.24 132.229 34.0733 131.696 34.82C131.163 35.5533 130.369 36.06 129.316 36.34L132.656 42H129.416ZM125.016 34.46H127.356C128.116 34.46 128.683 34.28 129.056 33.92C129.429 33.5467 129.616 33.0333 129.616 32.38C129.616 31.74 129.429 31.2467 129.056 30.9C128.683 30.54 128.116 30.36 127.356 30.36H125.016V34.46Z" fill="white"/>
<defs>
<filter id="filter0_d_33_350" x="0" y="0" width="192" height="96" filterUnits="userSpaceOnUse" color-interpolation-filters="sRGB">
<feFlood flood-opacity="0" result="BackgroundImageFix"/>
<feColorMatrix in="SourceAlpha" type="matrix" values="0 0 0 0 0 0 0 0 0 0 0 0 0 0 0 0 0 0 127 0" result="hardAlpha"/>
<feMorphology radius="8" operator="erode" in="SourceAlpha" result="effect1_dropShadow_33_350"/>
<feOffset dy="13"/>
<feGaussianBlur stdDeviation="13"/>
<feComposite in2="hardAlpha" operator="out"/>
<feColorMatrix type="matrix" values="0 0 0 0 0.196078 0 0 0 0 0.192157 0 0 0 0 0.192157 0 0 0 0.42 0"/>
<feBlend mode="normal" in2="BackgroundImageFix" result="effect1_dropShadow_33_350"/>
<feBlend mode="normal" in="SourceGraphic" in2="effect1_dropShadow_33_350" result="shape"/>
</filter>
</defs>
</svg>
